<svg width="12" height="13" viewBox="0 0 12 13" fill="none" xmlns="http://www.w3.org/2000/svg">
<path fill-rule="evenodd" clip-rule="evenodd" d="M1.5286 2.52876C1.65362 2.40373 1.82319 2.3335 2 2.3335H10C10.3682 2.3335 10.6667 2.63197 10.6667 3.00016V11.6668C10.6667 12.035 10.3682 12.3335 10 12.3335H2C1.63181 12.3335 1.33333 12.035 1.33333 11.6668V3.00016C1.33333 2.82335 1.40357 2.65378 1.5286 2.52876ZM2.66667 3.66683V11.0002H9.33333V3.66683H2.66667Z" fill="white"/>
<path fill-rule="evenodd" clip-rule="evenodd" d="M3 1.00016C3 0.631973 3.29848 0.333496 3.66667 0.333496H8.33333C8.70152 0.333496 9 0.631973 9 1.00016V3.00016C9 3.36835 8.70152 3.66683 8.33333 3.66683H3.66667C3.29848 3.66683 3 3.36835 3 3.00016V1.00016ZM4.33333 1.66683V2.3335H7.66667V1.66683H4.33333Z" fill="white"/>
<path fill-rule="evenodd" clip-rule="evenodd" d="M0 2.3335H12V3.66683H0V2.3335Z" fill="white"/>
<path fill-rule="evenodd" clip-rule="evenodd" d="M5.25 4.41683V10.2502H4.08333V4.41683H5.25Z" fill="white"/>
<path fill-rule="evenodd" clip-rule="evenodd" d="M7.91667 4.41683V10.2502H6.75V4.41683H7.91667Z" fill="white"/>
</svg>
