<svg width="120" height="120" viewBox="0 0 120 120" fill="none" xmlns="http://www.w3.org/2000/svg">
<rect width="120" height="120" fill="#F3F3F3"/>
<g clip-path="url(#clip0_90_4396)">
<path fill-rule="evenodd" clip-rule="evenodd" d="M50.6667 50.6667V69.3333H69.3333V50.6667H50.6667ZM49.3333 48C48.597 48 48 48.597 48 49.3333V70.6667C48 71.403 48.597 72 49.3333 72H70.6667C71.403 72 72 71.403 72 70.6667V49.3333C72 48.597 71.403 48 70.6667 48H49.3333Z" fill="#D1D1D1"/>
<path d="M49.3333 62L55.3333 57.3333L61.3333 62.6667L64.6667 60L70.6667 64.6667V70.6667H49.3333V62Z" fill="#D1D1D1"/>
<path d="M66.6667 55.3333C66.6667 56.4379 65.7712 57.3333 64.6667 57.3333C63.5621 57.3333 62.6667 56.4379 62.6667 55.3333C62.6667 54.2288 63.5621 53.3333 64.6667 53.3333C65.7712 53.3333 66.6667 54.2288 66.6667 55.3333Z" fill="#D1D1D1"/>
</g>
<defs>
<clipPath id="clip0_90_4396">
<rect width="32" height="32" fill="white" transform="translate(44 44)"/>
</clipPath>
</defs>
</svg>
